<?xml version="1.0" encoding="UTF-8"?><svg id="a" xmlns="http://www.w3.org/2000/svg" width="1022.65" height="189.54" viewBox="0 0 1022.65 189.54"><path d="M7.08,6.24H81.15V31.7H35.09v49.63h36.14v25.45H35.09v77.63H7.08V6.24Z" fill="#231f20" opacity=".5"/><path d="M94.65,6.24h41.49c29.02,0,41.49,13.49,41.49,40.98v10.94c0,18.32-5.86,30.03-18.33,35.12v.51c14,4.33,18.58,17.56,18.58,37.67v31.31c0,8.65,.25,15.02,3.05,21.63h-28.51c-1.53-4.58-2.55-7.38-2.55-21.89v-32.58c0-16.55-4.83-21.89-17.56-21.89h-9.67v76.36h-28V6.24Zm38.18,76.36c10.44,0,16.8-4.58,16.8-18.83v-13.75c0-12.72-4.33-18.32-14.26-18.32h-12.72v50.9h10.18Z" fill="#231f20" opacity=".5"/><path d="M197.24,6.24h76.36V31.7h-48.36v47.09h38.43v25.45h-38.43v54.72h48.36v25.45h-76.36V6.24Z" fill="#231f20" opacity=".5"/><path d="M289.64,6.24h76.36V31.7h-48.36v47.09h38.43v25.45h-38.43v54.72h48.36v25.45h-76.36V6.24Z" fill="#231f20" opacity=".5"/><path d="M444.66,31.7h-29.27V6.24h86.54V31.7h-29.27V184.41h-28V31.7Z" fill="#231f20" opacity=".5"/><path d="M512.38,142.16V48.49c0-28.51,15.02-44.8,42.51-44.8s42.51,16.29,42.51,44.8v93.67c0,28.51-15.02,44.8-42.51,44.8s-42.51-16.29-42.51-44.8Zm57.01,1.78V46.71c0-12.73-5.6-17.56-14.51-17.56s-14.51,4.83-14.51,17.56v97.23c0,12.73,5.6,17.56,14.51,17.56s14.51-4.83,14.51-17.56Z" fill="#231f20"/><path d="M741.17,141.05V5.13h28V143.09c0,12.73,5.34,17.31,14.25,17.31s14.25-4.58,14.25-17.31V5.13h26.98V141.05c0,28.51-14.25,44.8-41.74,44.8s-41.74-16.29-41.74-44.8Z" fill="#231f20" opacity=".5"/><path d="M839.68,141.05v-10.18h26.47v12.22c0,12.73,5.6,17.31,14.51,17.31s14.5-4.58,14.5-17.82c0-14.76-5.6-24.18-23.92-40.22-23.42-20.62-31.05-35.12-31.05-55.48,0-28,14.51-44.29,41.74-44.29s40.72,16.29,40.72,44.8v7.38h-26.47v-9.16c0-12.73-5.09-17.56-14-17.56s-14,4.83-14,17.05c0,12.98,5.86,22.4,24.18,38.43,23.42,20.62,30.8,34.87,30.8,57.01,0,29.02-14.76,45.31-42.25,45.31s-41.23-16.29-41.23-44.8Z" fill="#231f20" opacity=".5"/><path d="M939.21,5.13h76.36V30.59h-48.36v47.09h38.44v25.45h-38.44v54.72h48.36v25.45h-76.36V5.13Z" fill="#231f20" opacity=".5"/><g><path d="M612.67,45.81c0-13.79,7.26-21.67,20.55-21.67s20.55,7.88,20.55,21.67v15.13c0,13.78-7.26,21.66-20.55,21.66s-20.55-7.88-20.55-21.66v-15.13Zm13.53,15.99c0,6.15,2.7,8.49,7.02,8.49s7.01-2.33,7.01-8.49v-16.86c0-6.15-2.7-8.49-7.01-8.49s-7.02,2.33-7.02,8.49v16.86Z" fill="#231f20"/><path d="M661.44,45.81c0-13.79,7.26-21.67,20.55-21.67s20.54,7.88,20.54,21.67v15.13c0,13.78-7.26,21.66-20.54,21.66s-20.55-7.88-20.55-21.66v-15.13Zm13.53,15.99c0,6.15,2.7,8.49,7.02,8.49s7.01-2.33,7.01-8.49v-16.86c0-6.15-2.7-8.49-7.01-8.49s-7.02,2.33-7.02,8.49v16.86Z" fill="#231f20"/></g></svg>